<svg width="47" height="38" viewBox="0 0 47 38" fill="none" xmlns="http://www.w3.org/2000/svg">
<path d="M15.6667 3.16675H31.3333C32.3721 3.16675 33.3683 3.50038 34.1028 4.09424C34.8374 4.68811 35.25 5.49356 35.25 6.33341V9.50008H11.75V6.33341C11.75 5.49356 12.1626 4.68811 12.8972 4.09424C13.6317 3.50038 14.6279 3.16675 15.6667 3.16675Z" stroke="white" stroke-width="3" stroke-linecap="round" stroke-linejoin="round"/>
<path d="M31.3333 9.5H15.6667C13.5036 9.5 11.75 10.9178 11.75 12.6667V31.6667C11.75 33.4156 13.5036 34.8333 15.6667 34.8333H31.3333C33.4964 34.8333 35.25 33.4156 35.25 31.6667V12.6667C35.25 10.9178 33.4964 9.5 31.3333 9.5Z" stroke="white" stroke-width="3" stroke-linecap="round" stroke-linejoin="round"/>
<path d="M17.625 15.8333H29.375" stroke="white" stroke-width="3" stroke-linecap="round"/>
<path d="M17.625 20.5833H29.375" stroke="white" stroke-width="3" stroke-linecap="round"/>
<path d="M17.625 25.3333H23.5" stroke="white" stroke-width="3" stroke-linecap="round"/>
<path d="M33.2916 33.2499C37.6178 33.2499 41.1249 30.4144 41.1249 26.9166C41.1249 23.4188 37.6178 20.5833 33.2916 20.5833C28.9654 20.5833 25.4583 23.4188 25.4583 26.9166C25.4583 30.4144 28.9654 33.2499 33.2916 33.2499Z" stroke="white" stroke-width="3" stroke-linecap="round" stroke-linejoin="round"/>
<path d="M37.2083 30.0833L43.0833 34.8333L37.2083 30.0833Z" fill="white"/>
<path d="M37.2083 30.0833L43.0833 34.8333" stroke="white" stroke-width="3" stroke-linecap="round" stroke-linejoin="round"/>
</svg>
