<svg width="46" height="46" viewBox="0 0 46 46" fill="none" xmlns="http://www.w3.org/2000/svg">
<path d="M24.9167 9.58325H9.58333C7.46624 9.58325 5.75 11.2995 5.75 13.4166V32.5833C5.75 34.7003 7.46624 36.4166 9.58333 36.4166H24.9167C27.0338 36.4166 28.75 34.7003 28.75 32.5833V13.4166C28.75 11.2995 27.0338 9.58325 24.9167 9.58325Z" stroke="#0C9144" stroke-width="1.5" stroke-linecap="round" stroke-linejoin="round"/>
<path d="M10.5417 16.2915V29.7082" stroke="#0C9144" stroke-width="1.5" stroke-linecap="round" stroke-linejoin="round"/>
<path d="M13.8 16.2915V29.7082" stroke="#0C9144" stroke-width="1.5" stroke-linecap="round" stroke-linejoin="round"/>
<path d="M17.6333 16.2915V29.7082" stroke="#0C9144" stroke-width="1.5" stroke-linecap="round" stroke-linejoin="round"/>
<path d="M20.3167 16.2915V29.7082" stroke="#0C9144" stroke-width="1.5" stroke-linecap="round" stroke-linejoin="round"/>
<path d="M23.3833 16.2915V29.7082" stroke="#0C9144" stroke-width="1.5" stroke-linecap="round" stroke-linejoin="round"/>
<path d="M26.0667 16.2915V29.7082" stroke="#0C9144" stroke-width="1.5" stroke-linecap="round" stroke-linejoin="round"/>
<path d="M29.7083 20.125H37.3749L40.8249 23.575L37.3749 27.025H29.7083C28.9458 27.025 28.2145 26.7221 27.6753 26.1829C27.1362 25.6438 26.8333 24.9125 26.8333 24.15V23C26.8333 22.2375 27.1362 21.5062 27.6753 20.9671C28.2145 20.4279 28.9458 20.125 29.7083 20.125Z" stroke="#0C9144" stroke-width="1.5" stroke-linecap="round" stroke-linejoin="round"/>
<path d="M32.1999 24.2457C32.5704 24.2457 32.8707 23.9454 32.8707 23.5749C32.8707 23.2044 32.5704 22.9041 32.1999 22.9041C31.8294 22.9041 31.5291 23.2044 31.5291 23.5749C31.5291 23.9454 31.8294 24.2457 32.1999 24.2457Z" stroke="#0C9144" stroke-width="1.5" stroke-linecap="round" stroke-linejoin="round"/>
</svg>
