<svg width="22" height="20" viewBox="0 0 22 20" fill="none" xmlns="http://www.w3.org/2000/svg">
<path d="M3 12H1C0.447715 12 0 12.4477 0 13V19C0 19.5523 0.447715 20 1 20H3C3.55228 20 4 19.5523 4 19V13C4 12.4477 3.55228 12 3 12Z" fill="white"/>
<path d="M9 8H7C6.44772 8 6 8.44772 6 9V19C6 19.5523 6.44772 20 7 20H9C9.55228 20 10 19.5523 10 19V9C10 8.44772 9.55228 8 9 8Z" fill="white"/>
<path d="M15 4H13C12.4477 4 12 4.44772 12 5V19C12 19.5523 12.4477 20 13 20H15C15.5523 20 16 19.5523 16 19V5C16 4.44772 15.5523 4 15 4Z" fill="white"/>
<path d="M21 0H19C18.4477 0 18 0.447715 18 1V19C18 19.5523 18.4477 20 19 20H21C21.5523 20 22 19.5523 22 19V1C22 0.447715 21.5523 0 21 0Z" fill="white"/>
</svg>
