<svg width="18" height="18" viewBox="0 0 18 18" fill="none" xmlns="http://www.w3.org/2000/svg">
<path d="M9 17C13.4183 17 17 13.4183 17 9C17 4.58172 13.4183 1 9 1C4.58172 1 1 4.58172 1 9C1 13.4183 4.58172 17 9 17Z" stroke="white" stroke-width="2"/>
<path d="M8.7563 13.9091V4.81818H9.33869V13.9091H8.7563ZM10.301 7.81889C10.2726 7.53243 10.1507 7.3099 9.93528 7.15128C9.71984 6.99266 9.42747 6.91335 9.05815 6.91335C8.8072 6.91335 8.59532 6.94886 8.4225 7.01989C8.24967 7.08854 8.1171 7.18442 8.02477 7.30753C7.93481 7.43063 7.88983 7.57031 7.88983 7.72656C7.88509 7.85677 7.91232 7.97041 7.9715 8.06747C8.03306 8.16454 8.1171 8.24858 8.22363 8.3196C8.33017 8.38826 8.45327 8.44863 8.59295 8.50071C8.73263 8.55043 8.88178 8.59304 9.04039 8.62855L9.6938 8.7848C10.011 8.85582 10.3022 8.95052 10.5674 9.06889C10.8325 9.18726 11.0622 9.33286 11.2563 9.50568C11.4504 9.6785 11.6008 9.8821 11.7073 10.1165C11.8162 10.3509 11.8718 10.6196 11.8742 10.9226C11.8718 11.3677 11.7582 11.7536 11.5333 12.0803C11.3108 12.4046 10.9888 12.6567 10.5674 12.8366C10.1483 13.0142 9.6429 13.103 9.05105 13.103C8.46393 13.103 7.95256 13.013 7.51696 12.8331C7.08372 12.6532 6.74518 12.3868 6.50133 12.0341C6.25985 11.679 6.1332 11.2398 6.12136 10.7166H7.60929C7.62586 10.9605 7.6957 11.1641 7.8188 11.3274C7.94428 11.4884 8.11118 11.6103 8.31951 11.6932C8.53021 11.7737 8.76814 11.8139 9.03329 11.8139C9.29371 11.8139 9.5198 11.776 9.71156 11.7003C9.90569 11.6245 10.056 11.5192 10.1626 11.3842C10.2691 11.2493 10.3224 11.0942 10.3224 10.919C10.3224 10.7557 10.2738 10.6184 10.1768 10.5071C10.0821 10.3958 9.94238 10.3011 9.75772 10.223C9.57543 10.1449 9.35171 10.0739 9.08656 10.0099L8.29466 9.81108C7.68149 9.66193 7.19735 9.42874 6.84224 9.11151C6.48713 8.79427 6.31075 8.36695 6.31312 7.82955C6.31075 7.3892 6.42794 7.0045 6.66468 6.67543C6.90379 6.34635 7.23168 6.08949 7.64835 5.90483C8.06502 5.72017 8.5385 5.62784 9.0688 5.62784C9.60858 5.62784 10.0797 5.72017 10.4822 5.90483C10.887 6.08949 11.2019 6.34635 11.4268 6.67543C11.6517 7.0045 11.7677 7.38565 11.7748 7.81889H10.301Z" fill="white"/>
</svg>
