<svg width="38" height="38" viewBox="0 0 38 38" fill="none" xmlns="http://www.w3.org/2000/svg">
<path d="M15.8335 17.4167C18.4568 17.4167 20.5835 15.2901 20.5835 12.6667C20.5835 10.0434 18.4568 7.91675 15.8335 7.91675C13.2101 7.91675 11.0835 10.0434 11.0835 12.6667C11.0835 15.2901 13.2101 17.4167 15.8335 17.4167Z" stroke="#0C9144" stroke-width="1.5" stroke-linecap="round" stroke-linejoin="round"/>
<path d="M5.54175 32.4585C5.54175 27.2335 10.1334 22.9585 15.8334 22.9585C21.5334 22.9585 26.1251 27.2335 26.1251 32.4585" stroke="#0C9144" stroke-width="1.5" stroke-linecap="round" stroke-linejoin="round"/>
<path d="M29.0541 20.3459H27.9458C27.7709 20.3459 27.6292 20.4877 27.6292 20.6626V21.9293C27.6292 22.1042 27.7709 22.2459 27.9458 22.2459H29.0541C29.229 22.2459 29.3708 22.1042 29.3708 21.9293V20.6626C29.3708 20.4877 29.229 20.3459 29.0541 20.3459Z" stroke="#0C9144" stroke-width="1.5" stroke-linecap="round" stroke-linejoin="round"/>
<path d="M29.0541 31.5876H27.9458C27.7709 31.5876 27.6292 31.7294 27.6292 31.9043V33.171C27.6292 33.3459 27.7709 33.4876 27.9458 33.4876H29.0541C29.229 33.4876 29.3708 33.3459 29.3708 33.171V31.9043C29.3708 31.7294 29.229 31.5876 29.0541 31.5876Z" stroke="#0C9144" stroke-width="1.5" stroke-linecap="round" stroke-linejoin="round"/>
<path d="M34.7542 25.8877H33.4876C33.3127 25.8877 33.1709 26.0295 33.1709 26.2044V27.3127C33.1709 27.4876 33.3127 27.6294 33.4876 27.6294H34.7542C34.9291 27.6294 35.0709 27.4876 35.0709 27.3127V26.2044C35.0709 26.0295 34.9291 25.8877 34.7542 25.8877Z" stroke="#0C9144" stroke-width="1.5" stroke-linecap="round" stroke-linejoin="round"/>
<path d="M23.5125 25.8877H22.2459C22.071 25.8877 21.9292 26.0295 21.9292 26.2044V27.3127C21.9292 27.4876 22.071 27.6294 22.2459 27.6294H23.5125C23.6874 27.6294 23.8292 27.4876 23.8292 27.3127V26.2044C23.8292 26.0295 23.6874 25.8877 23.5125 25.8877Z" stroke="#0C9144" stroke-width="1.5" stroke-linecap="round" stroke-linejoin="round"/>
<path d="M33.6802 22.441L32.8965 21.6573C32.7729 21.5336 32.5724 21.5336 32.4487 21.6573L31.553 22.5529C31.4294 22.6766 31.4294 22.8771 31.553 23.0008L32.3367 23.7845C32.4604 23.9081 32.6609 23.9081 32.7846 23.7845L33.6802 22.8888C33.8039 22.7651 33.8039 22.5646 33.6802 22.441Z" stroke="#0C9144" stroke-width="1.5" stroke-linecap="round" stroke-linejoin="round"/>
<path d="M25.6053 30.5159L24.8216 29.7322C24.6979 29.6086 24.4974 29.6086 24.3737 29.7322L23.4781 30.6279C23.3544 30.7516 23.3544 30.9521 23.4781 31.0757L24.2618 31.8594C24.3854 31.9831 24.5859 31.9831 24.7096 31.8594L25.6053 30.9638C25.729 30.8401 25.7289 30.6396 25.6053 30.5159Z" stroke="#0C9144" stroke-width="1.5" stroke-linecap="round" stroke-linejoin="round"/>
<path d="M32.3367 29.7324L31.553 30.5161C31.4294 30.6397 31.4294 30.8402 31.553 30.9639L32.4487 31.8596C32.5724 31.9832 32.7729 31.9832 32.8965 31.8596L33.6802 31.0759C33.8039 30.9522 33.8039 30.7517 33.6802 30.628L32.7846 29.7324C32.6609 29.6087 32.4604 29.6087 32.3367 29.7324Z" stroke="#0C9144" stroke-width="1.5" stroke-linecap="round" stroke-linejoin="round"/>
<path d="M24.2618 21.6574L23.4781 22.4411C23.3544 22.5648 23.3544 22.7653 23.4781 22.889L24.3737 23.7846C24.4974 23.9083 24.6979 23.9083 24.8216 23.7846L25.6053 23.0009C25.7289 22.8772 25.7289 22.6767 25.6053 22.5531L24.7096 21.6574C24.5859 21.5337 24.3854 21.5337 24.2618 21.6574Z" stroke="#0C9144" stroke-width="1.5" stroke-linecap="round" stroke-linejoin="round"/>
<path d="M28.5 31.0334C30.7735 31.0334 32.6166 29.1903 32.6166 26.9167C32.6166 24.6431 30.7735 22.8 28.5 22.8C26.2264 22.8 24.3833 24.6431 24.3833 26.9167C24.3833 29.1903 26.2264 31.0334 28.5 31.0334Z" stroke="#0C9144" stroke-width="1.5" stroke-linecap="round" stroke-linejoin="round"/>
<path d="M28.5001 28.8168C29.5494 28.8168 30.4001 27.9662 30.4001 26.9168C30.4001 25.8675 29.5494 25.0168 28.5001 25.0168C27.4508 25.0168 26.6001 25.8675 26.6001 26.9168C26.6001 27.9662 27.4508 28.8168 28.5001 28.8168Z" stroke="#0C9144" stroke-width="1.5" stroke-linecap="round" stroke-linejoin="round"/>
</svg>
