<svg width="50" height="50" viewBox="0 0 50 50" fill="none" xmlns="http://www.w3.org/2000/svg">
<path d="M10.4167 18.7497C10.4167 17.6446 10.8557 16.5848 11.6371 15.8034C12.4185 15.022 13.4783 14.583 14.5834 14.583H31.2501C32.3551 14.583 33.415 15.022 34.1964 15.8034C34.9778 16.5848 35.4167 17.6446 35.4167 18.7497V39.583C35.4167 40.6881 34.9778 41.7479 34.1964 42.5293C33.415 43.3107 32.3551 43.7497 31.2501 43.7497H14.5834C13.4783 43.7497 12.4185 43.3107 11.6371 42.5293C10.8557 41.7479 10.4167 40.6881 10.4167 39.583V18.7497Z" stroke="white" stroke-width="3" stroke-linecap="round" stroke-linejoin="round"/>
<path d="M27.0835 10.4165H39.5835V22.9165" stroke="white" stroke-width="3" stroke-linecap="round" stroke-linejoin="round"/>
<path d="M39.5835 10.4165L20.8335 29.1665" stroke="white" stroke-width="3" stroke-linecap="round" stroke-linejoin="round"/>
</svg>
