<svg width="24" height="19" viewBox="0 0 24 19" fill="none" xmlns="http://www.w3.org/2000/svg">
<path d="M22.5 0H1.5C0.671573 0 0 0.671573 0 1.5C0 2.32843 0.671573 3 1.5 3H22.5C23.3284 3 24 2.32843 24 1.5C24 0.671573 23.3284 0 22.5 0Z" fill="#1A1D21"/>
<path d="M22.5 8H1.5C0.671573 8 0 8.67157 0 9.5C0 10.3284 0.671573 11 1.5 11H22.5C23.3284 11 24 10.3284 24 9.5C24 8.67157 23.3284 8 22.5 8Z" fill="#1A1D21"/>
<path d="M22.5 16H1.5C0.671573 16 0 16.6716 0 17.5C0 18.3284 0.671573 19 1.5 19H22.5C23.3284 19 24 18.3284 24 17.5C24 16.6716 23.3284 16 22.5 16Z" fill="#1A1D21"/>
</svg>
