<svg width="46" height="46" viewBox="0 0 46 46" fill="none" xmlns="http://www.w3.org/2000/svg">
<path d="M11.5001 15.3335H34.5001C35.5167 15.3335 36.4918 15.7374 37.2107 16.4563C37.9295 17.1751 38.3334 18.1502 38.3334 19.1668V23.0002C37.5201 23.0002 36.7401 23.3233 36.165 23.8984C35.5898 24.4735 35.2667 25.2535 35.2667 26.0668C35.2667 26.8802 35.5898 27.6602 36.165 28.2353C36.7401 28.8104 37.5201 29.1335 38.3334 29.1335V32.9668C38.3334 33.9835 37.9295 34.9585 37.2107 35.6774C36.4918 36.3963 35.5167 36.8002 34.5001 36.8002H11.5001C10.4834 36.8002 9.50839 36.3963 8.78951 35.6774C8.07062 34.9585 7.66675 33.9835 7.66675 32.9668V29.1335C8.48008 29.1335 9.2601 28.8104 9.83521 28.2353C10.4103 27.6602 10.7334 26.8802 10.7334 26.0668C10.7334 25.2535 10.4103 24.4735 9.83521 23.8984C9.2601 23.3233 8.48008 23.0002 7.66675 23.0002V19.1668C7.66675 18.1502 8.07062 17.1751 8.78951 16.4563C9.50839 15.7374 10.4834 15.3335 11.5001 15.3335Z" stroke="#0C9144" stroke-width="1.5" stroke-linecap="round" stroke-linejoin="round"/>
<path d="M20.1251 25.1084C21.0778 25.1084 21.8501 24.3361 21.8501 23.3834C21.8501 22.4308 21.0778 21.6584 20.1251 21.6584C19.1725 21.6584 18.4001 22.4308 18.4001 23.3834C18.4001 24.3361 19.1725 25.1084 20.1251 25.1084Z" stroke="#0C9144" stroke-width="1.5" stroke-linecap="round" stroke-linejoin="round"/>
<path d="M27.7916 32.7752C28.7443 32.7752 29.5166 32.0029 29.5166 31.0502C29.5166 30.0975 28.7443 29.3252 27.7916 29.3252C26.839 29.3252 26.0667 30.0975 26.0667 31.0502C26.0667 32.0029 26.839 32.7752 27.7916 32.7752Z" stroke="#0C9144" stroke-width="1.5" stroke-linecap="round" stroke-linejoin="round"/>
<path d="M18.7834 32.3917L29.1334 22.0417" stroke="#0C9144" stroke-width="1.5" stroke-linecap="round" stroke-linejoin="round"/>
<path d="M36.4167 14.3751C39.063 14.3751 41.2083 12.2298 41.2083 9.58341C41.2083 6.93705 39.063 4.79175 36.4167 4.79175C33.7703 4.79175 31.625 6.93705 31.625 9.58341C31.625 12.2298 33.7703 14.3751 36.4167 14.3751Z" stroke="#0C9144" stroke-width="1.5" stroke-linecap="round" stroke-linejoin="round"/>
<path d="M36.4167 7.4751V10.7334" stroke="#0C9144" stroke-width="1.5" stroke-linecap="round" stroke-linejoin="round"/>
<path d="M36.4167 13.3209C36.6813 13.3209 36.8958 13.1064 36.8958 12.8417C36.8958 12.5771 36.6813 12.3625 36.4167 12.3625C36.152 12.3625 35.9375 12.5771 35.9375 12.8417C35.9375 13.1064 36.152 13.3209 36.4167 13.3209Z" stroke="#0C9144" stroke-width="1.5" stroke-linecap="round" stroke-linejoin="round"/>
</svg>
