<svg width="19" height="28" viewBox="0 0 19 28" fill="none" xmlns="http://www.w3.org/2000/svg">
<path d="M16.6164 10.5049C16.2594 10.4159 15.8863 10.4171 15.5299 10.5084C15.4548 9.95585 15.2121 9.44059 14.8355 9.03367C14.6076 8.80089 14.3363 8.61613 14.0375 8.49003C13.7387 8.36393 13.4182 8.29898 13.0945 8.29895L13.0029 8.3007H12.9908C12.6108 8.3007 12.2481 8.37767 11.9182 8.51761C11.8152 8.21159 11.6437 7.93381 11.4173 7.70592C11.1628 7.45887 10.8598 7.269 10.5279 7.14872C10.196 7.02845 9.8428 6.98047 9.49136 7.00793H9.5C10.0142 6.31787 10.315 5.48892 10.3643 4.62582C10.4136 3.76271 10.2092 2.90418 9.77687 2.15868C9.34459 1.41319 8.70383 0.814179 7.93555 0.437334C7.16728 0.0604887 6.30595 -0.0772829 5.4604 0.041425C4.61484 0.160133 3.823 0.529994 3.1849 1.10428C2.54681 1.67857 2.09109 2.43151 1.87533 3.26799C1.65958 4.10446 1.69345 4.98694 1.97269 5.80392C2.25192 6.6209 2.76399 7.33574 3.44418 7.85811L3.45455 12.5184C2.53583 12.5431 1.65709 12.9041 0.981091 13.5347C1.02953e-07 14.6176 0 16.2969 0 18.3961V19.6557C0.025049 20.5929 0.255277 21.5128 0.674062 22.349C1.09285 23.1851 1.68974 23.9167 2.42164 24.4908L3.04 25.1136C5.18182 27.3353 7.15091 28 11.7109 28C16.6855 28 19 25.1836 19 19.1483V14.7575C19 13.4105 18.62 11.0472 16.6164 10.5049ZM17.2727 14.6158V19.1466C17.2727 25.0419 15.0445 26.2489 11.7109 26.2489C7.22 26.2489 5.83818 25.5667 4.28364 23.9223L3.66182 23.275C3.08687 22.864 2.61323 22.3243 2.27771 21.6978C1.9422 21.0713 1.75384 20.3749 1.72727 19.6627V18.3769C1.50529 17.1338 1.68583 15.8514 2.242 14.7208C2.56327 14.4899 2.98645 14.3219 3.44764 14.3009L3.45282 15.5255V15.1406L2.86555 17.7646C2.84842 17.8037 2.83906 17.8458 2.83799 17.8885C2.83693 17.9312 2.84418 17.9737 2.85934 18.0136C2.87449 18.0535 2.89726 18.0899 2.92633 18.1209C2.9554 18.1519 2.99021 18.1767 3.02877 18.1941C3.06733 18.2114 3.10889 18.2209 3.15107 18.222C3.19325 18.2231 3.23522 18.2157 3.2746 18.2004C3.31398 18.185 3.34998 18.162 3.38056 18.1325C3.41114 18.1031 3.43569 18.0678 3.45282 18.0288L5.18009 15.9103C5.19217 15.858 5.19217 15.8035 5.18009 15.7511V5.93909L5.17836 5.87086C5.17836 5.42303 5.32173 5.01019 5.56355 4.67432C5.65185 4.58061 5.75924 4.50751 5.87825 4.46008C5.99727 4.41265 6.12505 4.39204 6.25273 4.39967C6.61545 4.39967 6.90736 4.69706 6.90736 5.06442V11.8519C6.90736 12.0838 6.99835 12.3063 7.16032 12.4703C7.32228 12.6344 7.54195 12.7265 7.771 12.7265C8.00005 12.7265 8.21972 12.6344 8.38168 12.4703C8.54365 12.3063 8.63464 12.0838 8.63464 11.8519V9.54273C8.639 9.43285 8.66508 9.32498 8.71133 9.2255C8.75759 9.12602 8.82307 9.03694 8.90392 8.96354C8.98477 8.89014 9.07933 8.83391 9.18201 8.79818C9.28469 8.76245 9.39341 8.74795 9.50173 8.75552C9.60658 8.73519 9.71457 8.73854 9.818 8.76534C9.92143 8.79214 10.0177 8.84173 10.1001 8.91057C10.1824 8.97941 10.2487 9.0658 10.2943 9.16358C10.3398 9.26137 10.3635 9.36813 10.3636 9.47625L10.3619 9.52698V11.8519C10.3619 12.0838 10.4529 12.3063 10.6149 12.4703C10.7768 12.6344 10.9965 12.7265 11.2255 12.7265C11.4546 12.7265 11.6743 12.6344 11.8362 12.4703C11.9982 12.3063 12.0892 12.0838 12.0892 11.8519V10.7323C12.1196 10.529 12.2273 10.3458 12.3894 10.2219C12.5514 10.098 12.7549 10.0432 12.9563 10.0693C13.0615 10.0573 13.168 10.0683 13.2687 10.1015C13.3694 10.1347 13.4619 10.1893 13.5401 10.2617C13.7128 10.4874 13.8165 10.776 13.8165 11.0891V12.5516C13.8192 12.783 13.9123 13.0038 14.0755 13.1658C14.2387 13.3277 14.4585 13.4176 14.687 13.4158C14.8847 13.4159 15.0766 13.3487 15.232 13.2249C15.3874 13.1012 15.4972 12.9281 15.5437 12.7335C15.5824 12.5482 15.6794 12.3806 15.8201 12.256C15.8806 12.2282 15.9463 12.2138 16.0127 12.2138C16.0791 12.2138 16.1448 12.2282 16.2053 12.256C16.58 12.5024 16.8787 12.8506 17.0675 13.2607C17.2562 13.6709 17.3273 14.1265 17.2727 14.5756L17.2745 14.5633L17.2727 14.6158Z" fill="#374151"/>
</svg>
