<svg width="15" height="19" viewBox="0 0 15 19" fill="none" xmlns="http://www.w3.org/2000/svg">
<path d="M7.2381 10.45C6.96264 10.4466 6.69281 10.5319 6.46492 10.6944C6.23704 10.8569 6.06204 11.0889 5.96348 11.359C5.86492 11.6291 5.84753 11.9244 5.91366 12.2052C5.97978 12.486 6.12625 12.7388 6.33333 12.9295V14.25C6.33333 14.502 6.42866 14.7436 6.59833 14.9218C6.76801 15.0999 6.99814 15.2 7.2381 15.2C7.47805 15.2 7.70818 15.0999 7.87786 14.9218C8.04753 14.7436 8.14286 14.502 8.14286 14.25V12.9295C8.34994 12.7388 8.49641 12.486 8.56253 12.2052C8.62866 11.9244 8.61127 11.6291 8.51271 11.359C8.41415 11.0889 8.23915 10.8569 8.01127 10.6944C7.78338 10.5319 7.51355 10.4466 7.2381 10.45ZM11.7619 6.65V4.75C11.7619 3.49022 11.2853 2.28204 10.4369 1.39124C9.58853 0.500445 8.43788 0 7.2381 0C6.03831 0 4.88766 0.500445 4.03928 1.39124C3.1909 2.28204 2.71429 3.49022 2.71429 4.75V6.65C1.99441 6.65 1.30402 6.95027 0.794996 7.48475C0.285969 8.01922 0 8.74413 0 9.5V16.15C0 16.9059 0.285969 17.6308 0.794996 18.1653C1.30402 18.6997 1.99441 19 2.71429 19H11.7619C12.4818 19 13.1722 18.6997 13.6812 18.1653C14.1902 17.6308 14.4762 16.9059 14.4762 16.15V9.5C14.4762 8.74413 14.1902 8.01922 13.6812 7.48475C13.1722 6.95027 12.4818 6.65 11.7619 6.65ZM4.52381 4.75C4.52381 3.99413 4.80978 3.26922 5.31881 2.73475C5.82783 2.20027 6.51822 1.9 7.2381 1.9C7.95797 1.9 8.64836 2.20027 9.15739 2.73475C9.66641 3.26922 9.95238 3.99413 9.95238 4.75V6.65H4.52381V4.75ZM12.6667 16.15C12.6667 16.402 12.5713 16.6436 12.4017 16.8218C12.232 16.9999 12.0019 17.1 11.7619 17.1H2.71429C2.47433 17.1 2.2442 16.9999 2.07452 16.8218C1.90485 16.6436 1.80952 16.402 1.80952 16.15V9.5C1.80952 9.24804 1.90485 9.00641 2.07452 8.82825C2.2442 8.65009 2.47433 8.55 2.71429 8.55H11.7619C12.0019 8.55 12.232 8.65009 12.4017 8.82825C12.5713 9.00641 12.6667 9.24804 12.6667 9.5V16.15Z" fill="#9C9C9C"/>
</svg>
