<svg width="17" height="17" viewBox="0 0 17 17" fill="none" xmlns="http://www.w3.org/2000/svg">
<path d="M11.3717 8.92958C12.1887 8.2868 12.785 7.40535 13.0777 6.40787C13.3704 5.41038 13.345 4.34647 13.0048 3.36414C12.6647 2.3818 12.0269 1.52991 11.1801 0.92696C10.3333 0.324012 9.31957 0 8.28003 0C7.24048 0 6.22679 0.324012 5.37997 0.92696C4.53315 1.52991 3.89531 2.3818 3.5552 3.36414C3.21509 4.34647 3.18962 5.41038 3.48233 6.40787C3.77503 7.40535 4.37137 8.2868 5.18836 8.92958C3.78842 9.49045 2.56693 10.4207 1.6541 11.6212C0.741275 12.8216 0.171329 14.2473 0.00502653 15.7462C-0.00701131 15.8557 0.00262365 15.9664 0.0333811 16.0721C0.0641385 16.1778 0.115416 16.2765 0.184286 16.3624C0.323376 16.5358 0.52568 16.6469 0.746693 16.6712C0.967707 16.6956 1.18933 16.6311 1.3628 16.492C1.53627 16.3529 1.64738 16.1506 1.67169 15.9296C1.85468 14.3006 2.63143 12.7961 3.85354 11.7036C5.07565 10.6111 6.65744 10.0071 8.29669 10.0071C9.93595 10.0071 11.5177 10.6111 12.7398 11.7036C13.962 12.7961 14.7387 14.3006 14.9217 15.9296C14.9444 16.1343 15.0421 16.3235 15.1959 16.4604C15.3498 16.5974 15.549 16.6725 15.755 16.6712H15.8467C16.0651 16.6461 16.2648 16.5357 16.4022 16.364C16.5395 16.1923 16.6035 15.9732 16.58 15.7546C16.4129 14.2514 15.8399 12.8221 14.9224 11.6198C14.0049 10.4174 12.7775 9.48748 11.3717 8.92958ZM8.28003 8.33791C7.62076 8.33791 6.97629 8.14242 6.42813 7.77615C5.87996 7.40987 5.45272 6.88928 5.20043 6.28019C4.94814 5.6711 4.88212 5.00088 5.01074 4.35428C5.13936 3.70768 5.45683 3.11373 5.923 2.64756C6.38918 2.18138 6.98312 1.86391 7.62973 1.7353C8.27633 1.60668 8.94655 1.67269 9.55564 1.92498C10.1647 2.17727 10.6853 2.60452 11.0516 3.15268C11.4179 3.70084 11.6134 4.34531 11.6134 5.00458C11.6134 5.88864 11.2622 6.73648 10.6371 7.3616C10.0119 7.98672 9.16408 8.33791 8.28003 8.33791Z" fill="#9C9C9C"/>
</svg>
